<?xml version="1.0" encoding="UTF-8" standalone="no"?>
<!-- Created with Inkscape (http://www.inkscape.org/) -->

<svg
   xmlns:dc="http://purl.org/dc/elements/1.1/"
   xmlns:cc="http://creativecommons.org/ns#"
   xmlns:rdf="http://www.w3.org/1999/02/22-rdf-syntax-ns#"
   xmlns:svg="http://www.w3.org/2000/svg"
   xmlns="http://www.w3.org/2000/svg"
   xmlns:xlink="http://www.w3.org/1999/xlink"
   xmlns:sodipodi="http://sodipodi.sourceforge.net/DTD/sodipodi-0.dtd"
   xmlns:inkscape="http://www.inkscape.org/namespaces/inkscape"
   width="24"
   height="24"
   viewBox="0 0 6.3499999 6.3500002"
   version="1.1"
   id="svg8"
   inkscape:version="0.92.4 (5da689c313, 2019-01-14)"
   sodipodi:docname="9. Identification Card.svg">
  <defs
     id="defs2">
    <linearGradient
       inkscape:collect="always"
       id="linearGradient849">
      <stop
         style="stop-color:#ff1493;stop-opacity:1"
         offset="0"
         id="stop845" />
      <stop
         style="stop-color:#8a2be2;stop-opacity:1"
         offset="1"
         id="stop847" />
    </linearGradient>
    <pattern
       y="0"
       x="0"
       height="6"
       width="6"
       patternUnits="userSpaceOnUse"
       id="EMFhbasepattern" />
    <pattern
       y="0"
       x="0"
       height="6"
       width="6"
       patternUnits="userSpaceOnUse"
       id="EMFhbasepattern-3" />
    <pattern
       y="0"
       x="0"
       height="6"
       width="6"
       patternUnits="userSpaceOnUse"
       id="EMFhbasepattern-2" />
    <pattern
       y="0"
       x="0"
       height="6"
       width="6"
       patternUnits="userSpaceOnUse"
       id="EMFhbasepattern-1" />
    <pattern
       y="0"
       x="0"
       height="6"
       width="6"
       patternUnits="userSpaceOnUse"
       id="EMFhbasepattern-5" />
    <linearGradient
       inkscape:collect="always"
       xlink:href="#linearGradient849"
       id="linearGradient851"
       x1="0.77139741"
       y1="292.03595"
       x2="5.5435238"
       y2="295.63739"
       gradientUnits="userSpaceOnUse" />
  </defs>
  <sodipodi:namedview
     id="base"
     pagecolor="#ffffff"
     bordercolor="#666666"
     borderopacity="1.0"
     inkscape:pageopacity="0.0"
     inkscape:pageshadow="2"
     inkscape:zoom="11.313708"
     inkscape:cx="3.6480079"
     inkscape:cy="12.308864"
     inkscape:document-units="px"
     inkscape:current-layer="layer1"
     showgrid="false"
     units="px"
     inkscape:window-width="1280"
     inkscape:window-height="658"
     inkscape:window-x="-8"
     inkscape:window-y="-8"
     inkscape:window-maximized="1"
     showguides="true"
     guidecolor="#af0000"
     guideopacity="0.49803922"
     guidehicolor="#ff4b4b"
     guidehiopacity="0.49803922"
     inkscape:snap-global="false">
    <inkscape:grid
       type="xygrid"
       id="grid815"
       empspacing="1"
       originx="0"
       originy="0"
       spacingx="0"
       spacingy="0"
       snapvisiblegridlinesonly="true"
       visible="true"
       enabled="true"
       dotted="false" />
  </sodipodi:namedview>
  <metadata
     id="metadata5">
    <rdf:RDF>
      <cc:Work
         rdf:about="">
        <dc:format>image/svg+xml</dc:format>
        <dc:type
           rdf:resource="http://purl.org/dc/dcmitype/StillImage" />
        <dc:title />
      </cc:Work>
    </rdf:RDF>
  </metadata>
  <g
     inkscape:label="Guides"
     inkscape:groupmode="layer"
     id="layer1"
     transform="translate(0,-290.64999)">
    <path
       style="color:#000000;font-style:normal;font-variant:normal;font-weight:normal;font-stretch:normal;font-size:medium;line-height:normal;font-family:sans-serif;font-variant-ligatures:normal;font-variant-position:normal;font-variant-caps:normal;font-variant-numeric:normal;font-variant-alternates:normal;font-feature-settings:normal;text-indent:0;text-align:start;text-decoration:none;text-decoration-line:none;text-decoration-style:solid;text-decoration-color:#000000;letter-spacing:normal;word-spacing:normal;text-transform:none;writing-mode:lr-tb;direction:ltr;text-orientation:mixed;dominant-baseline:auto;baseline-shift:baseline;text-anchor:start;white-space:normal;shape-padding:0;clip-rule:nonzero;display:inline;overflow:visible;visibility:visible;opacity:1;isolation:auto;mix-blend-mode:normal;color-interpolation:sRGB;color-interpolation-filters:linearRGB;solid-color:#000000;solid-opacity:1;vector-effect:none;fill:#d8d8d8;fill-opacity:1;fill-rule:nonzero;stroke:none;stroke-width:0.26458335;stroke-linecap:round;stroke-linejoin:miter;stroke-miterlimit:4;stroke-dasharray:none;stroke-dashoffset:0;stroke-opacity:1;paint-order:normal;color-rendering:auto;image-rendering:auto;shape-rendering:auto;text-rendering:auto;enable-background:accumulate"
       d="m 1.0585938,292.42383 c -0.14429095,0 -0.26367193,0.11938 -0.26367192,0.26367 v 2.68164 c 0,0.14429 0.11938097,0.26367 0.26367192,0.26367 h 4.2324218 c 0.1442909,0 0.2636719,-0.11938 0.2636719,-0.26367 v -2.68164 c 0,-0.14429 -0.119381,-0.26367 -0.2636719,-0.26367 z"
       id="rect1035"
       inkscape:connector-curvature="0"
       sodipodi:nodetypes="sssssssss" />
    <path
       style="color:#000000;font-style:normal;font-variant:normal;font-weight:normal;font-stretch:normal;font-size:medium;line-height:normal;font-family:sans-serif;font-variant-ligatures:normal;font-variant-position:normal;font-variant-caps:normal;font-variant-numeric:normal;font-variant-alternates:normal;font-feature-settings:normal;text-indent:0;text-align:start;text-decoration:none;text-decoration-line:none;text-decoration-style:solid;text-decoration-color:#000000;letter-spacing:normal;word-spacing:normal;text-transform:none;writing-mode:lr-tb;direction:ltr;text-orientation:mixed;dominant-baseline:auto;baseline-shift:baseline;text-anchor:start;white-space:normal;shape-padding:0;clip-rule:nonzero;display:inline;overflow:visible;visibility:visible;opacity:1;isolation:auto;mix-blend-mode:normal;color-interpolation:sRGB;color-interpolation-filters:linearRGB;solid-color:#000000;solid-opacity:1;vector-effect:none;fill:#4c6ceb;fill-opacity:1;fill-rule:nonzero;stroke:none;stroke-width:0.26458335;stroke-linecap:round;stroke-linejoin:miter;stroke-miterlimit:4;stroke-dasharray:none;stroke-dashoffset:0;stroke-opacity:1;paint-order:normal;color-rendering:auto;image-rendering:auto;shape-rendering:auto;text-rendering:auto;enable-background:accumulate"
       d="m 2.6230469,292.01758 c -0.1442909,0 -0.2636719,0.11938 -0.2636719,0.26367 v 0.38672 c 0,0.14429 0.119381,0.26367 0.2636719,0.26367 h 1.1035156 c 0.1442909,0 0.265625,-0.11938 0.265625,-0.26367 v -0.38672 c 0,-0.14429 -0.1213341,-0.26367 -0.265625,-0.26367 z"
       id="rect1037"
       inkscape:connector-curvature="0"
       sodipodi:nodetypes="sssssssss" />
    <path
       style="color:#000000;font-style:normal;font-variant:normal;font-weight:normal;font-stretch:normal;font-size:medium;line-height:normal;font-family:sans-serif;font-variant-ligatures:normal;font-variant-position:normal;font-variant-caps:normal;font-variant-numeric:normal;font-variant-alternates:normal;font-feature-settings:normal;text-indent:0;text-align:start;text-decoration:none;text-decoration-line:none;text-decoration-style:solid;text-decoration-color:#000000;letter-spacing:normal;word-spacing:normal;text-transform:none;writing-mode:lr-tb;direction:ltr;text-orientation:mixed;dominant-baseline:auto;baseline-shift:baseline;text-anchor:start;white-space:normal;shape-padding:0;clip-rule:nonzero;display:inline;overflow:visible;visibility:visible;opacity:1;isolation:auto;mix-blend-mode:normal;color-interpolation:sRGB;color-interpolation-filters:linearRGB;solid-color:#000000;solid-opacity:1;vector-effect:none;fill:#444444;fill-opacity:1;fill-rule:nonzero;stroke:none;stroke-width:0.26458335;stroke-linecap:round;stroke-linejoin:miter;stroke-miterlimit:4;stroke-dasharray:none;stroke-dashoffset:0;stroke-opacity:1;color-rendering:auto;image-rendering:auto;shape-rendering:auto;text-rendering:auto;enable-background:accumulate"
       d="m 3.4667969,293.42773 a 0.1323049,0.1323049 0 0 0 0.013672,0.26368 h 1.3652343 a 0.1323049,0.1323049 0 1 0 0,-0.26368 H 3.4804688 a 0.1323049,0.1323049 0 0 0 -0.013672,0 z"
       id="path1041"
       inkscape:connector-curvature="0" />
    <path
       style="color:#000000;font-style:normal;font-variant:normal;font-weight:normal;font-stretch:normal;font-size:medium;line-height:normal;font-family:sans-serif;font-variant-ligatures:normal;font-variant-position:normal;font-variant-caps:normal;font-variant-numeric:normal;font-variant-alternates:normal;font-feature-settings:normal;text-indent:0;text-align:start;text-decoration:none;text-decoration-line:none;text-decoration-style:solid;text-decoration-color:#000000;letter-spacing:normal;word-spacing:normal;text-transform:none;writing-mode:lr-tb;direction:ltr;text-orientation:mixed;dominant-baseline:auto;baseline-shift:baseline;text-anchor:start;white-space:normal;shape-padding:0;clip-rule:nonzero;display:inline;overflow:visible;visibility:visible;opacity:1;isolation:auto;mix-blend-mode:normal;color-interpolation:sRGB;color-interpolation-filters:linearRGB;solid-color:#000000;solid-opacity:1;vector-effect:none;fill:#444444;fill-opacity:1;fill-rule:nonzero;stroke:none;stroke-width:0.26458335;stroke-linecap:round;stroke-linejoin:miter;stroke-miterlimit:4;stroke-dasharray:none;stroke-dashoffset:0;stroke-opacity:1;color-rendering:auto;image-rendering:auto;shape-rendering:auto;text-rendering:auto;enable-background:accumulate"
       d="m 3.4804688,293.92383 a 0.13281,0.13281 0 1 0 0,0.26562 h 1.3652343 a 0.13281,0.13281 0 1 0 0,-0.26562 z"
       id="path1043"
       inkscape:connector-curvature="0" />
    <path
       style="color:#000000;font-style:normal;font-variant:normal;font-weight:normal;font-stretch:normal;font-size:medium;line-height:normal;font-family:sans-serif;font-variant-ligatures:normal;font-variant-position:normal;font-variant-caps:normal;font-variant-numeric:normal;font-variant-alternates:normal;font-feature-settings:normal;text-indent:0;text-align:start;text-decoration:none;text-decoration-line:none;text-decoration-style:solid;text-decoration-color:#000000;letter-spacing:normal;word-spacing:normal;text-transform:none;writing-mode:lr-tb;direction:ltr;text-orientation:mixed;dominant-baseline:auto;baseline-shift:baseline;text-anchor:start;white-space:normal;shape-padding:0;clip-rule:nonzero;display:inline;overflow:visible;visibility:visible;opacity:1;isolation:auto;mix-blend-mode:normal;color-interpolation:sRGB;color-interpolation-filters:linearRGB;solid-color:#000000;solid-opacity:1;vector-effect:none;fill:#444444;fill-opacity:1;fill-rule:nonzero;stroke:none;stroke-width:0.26458335;stroke-linecap:round;stroke-linejoin:miter;stroke-miterlimit:4;stroke-dasharray:none;stroke-dashoffset:0;stroke-opacity:1;color-rendering:auto;image-rendering:auto;shape-rendering:auto;text-rendering:auto;enable-background:accumulate"
       d="m 3.4667969,294.42188 a 0.1323049,0.1323049 0 0 0 0.013672,0.26367 h 1.3652343 a 0.1323049,0.1323049 0 1 0 0,-0.26367 H 3.4804688 a 0.1323049,0.1323049 0 0 0 -0.013672,0 z"
       id="path1045"
       inkscape:connector-curvature="0" />
    <path
       style="color:#000000;font-style:normal;font-variant:normal;font-weight:normal;font-stretch:normal;font-size:medium;line-height:normal;font-family:sans-serif;font-variant-ligatures:normal;font-variant-position:normal;font-variant-caps:normal;font-variant-numeric:normal;font-variant-alternates:normal;font-feature-settings:normal;text-indent:0;text-align:start;text-decoration:none;text-decoration-line:none;text-decoration-style:solid;text-decoration-color:#000000;letter-spacing:normal;word-spacing:normal;text-transform:none;writing-mode:lr-tb;direction:ltr;text-orientation:mixed;dominant-baseline:auto;baseline-shift:baseline;text-anchor:start;white-space:normal;shape-padding:0;clip-rule:nonzero;display:inline;overflow:visible;visibility:visible;opacity:1;isolation:auto;mix-blend-mode:normal;color-interpolation:sRGB;color-interpolation-filters:linearRGB;solid-color:#000000;solid-opacity:1;vector-effect:none;fill:#e45353;fill-opacity:1;fill-rule:nonzero;stroke:none;stroke-width:0.26458335;stroke-linecap:round;stroke-linejoin:miter;stroke-miterlimit:4;stroke-dasharray:none;stroke-dashoffset:0;stroke-opacity:1;paint-order:normal;color-rendering:auto;image-rendering:auto;shape-rendering:auto;text-rendering:auto;enable-background:accumulate"
       d="m 1.671875,293.11914 c -0.1442909,0 -0.265625,0.12133 -0.265625,0.26563 v 1.28711 c 0,0.14429 0.1213341,0.26562 0.265625,0.26562 h 1.125 c 0.1442909,0 0.265625,-0.12133 0.265625,-0.26562 v -1.28711 c 0,-0.1443 -0.1213341,-0.26563 -0.265625,-0.26563 z"
       id="rect1039"
       inkscape:connector-curvature="0"
       sodipodi:nodetypes="sssssssss" />
    <path
       style="color:#000000;font-style:normal;font-variant:normal;font-weight:normal;font-stretch:normal;font-size:medium;line-height:normal;font-family:sans-serif;font-variant-ligatures:normal;font-variant-position:normal;font-variant-caps:normal;font-variant-numeric:normal;font-variant-alternates:normal;font-feature-settings:normal;text-indent:0;text-align:start;text-decoration:none;text-decoration-line:none;text-decoration-style:solid;text-decoration-color:#000000;letter-spacing:normal;word-spacing:normal;text-transform:none;writing-mode:lr-tb;direction:ltr;text-orientation:mixed;dominant-baseline:auto;baseline-shift:baseline;text-anchor:start;white-space:normal;shape-padding:0;clip-rule:nonzero;display:inline;overflow:visible;visibility:visible;opacity:1;isolation:auto;mix-blend-mode:normal;color-interpolation:sRGB;color-interpolation-filters:linearRGB;solid-color:#000000;solid-opacity:1;vector-effect:none;fill:#edb666;fill-opacity:1;fill-rule:nonzero;stroke:none;stroke-width:0.26458335;stroke-linecap:round;stroke-linejoin:round;stroke-miterlimit:4;stroke-dasharray:none;stroke-dashoffset:0;stroke-opacity:1;paint-order:normal;color-rendering:auto;image-rendering:auto;shape-rendering:auto;text-rendering:auto;enable-background:accumulate"
       d="m 2.234375,293.52344 c -0.2301599,-8e-5 -0.4179482,0.1896 -0.4179688,0.41992 2.55e-5,0.057 -0.00879,0.12286 0.00781,0.20117 0.00556,0.0262 0.04556,0.0414 0.0625,0.0684 -0.067016,0.0554 -0.1534739,0.0933 -0.1855469,0.16992 -0.054801,0.13087 -0.07225,0.27756 -0.072266,0.41797 7.935e-4,0.0727 0.060106,0.13114 0.1328126,0.13086 h 0.9453124 c 0.071945,-7.8e-4 0.1300779,-0.0589 0.1308594,-0.13086 -1.31e-5,-0.14254 -0.019694,-0.29128 -0.078125,-0.42187 -0.03353,-0.0749 -0.1196803,-0.10984 -0.1855468,-0.16407 0.017038,-0.0253 0.055501,-0.0389 0.0625,-0.0644 0.021428,-0.0783 0.015575,-0.14586 0.015625,-0.20703 -2.06e-5,-0.23025 -0.1878775,-0.41989 -0.4179688,-0.41992 z"
       id="circle1047"
       inkscape:connector-curvature="0"
       sodipodi:nodetypes="ccccccccccccccc" />
    <path
       inkscape:connector-curvature="0"
       style="color:#000000;font-style:normal;font-variant:normal;font-weight:normal;font-stretch:normal;font-size:medium;line-height:normal;font-family:sans-serif;font-variant-ligatures:normal;font-variant-position:normal;font-variant-caps:normal;font-variant-numeric:normal;font-variant-alternates:normal;font-feature-settings:normal;text-indent:0;text-align:start;text-decoration:none;text-decoration-line:none;text-decoration-style:solid;text-decoration-color:#000000;letter-spacing:normal;word-spacing:normal;text-transform:none;writing-mode:lr-tb;direction:ltr;text-orientation:mixed;dominant-baseline:auto;baseline-shift:baseline;text-anchor:start;white-space:normal;shape-padding:0;clip-rule:nonzero;display:inline;overflow:visible;visibility:visible;opacity:1;isolation:auto;mix-blend-mode:normal;color-interpolation:sRGB;color-interpolation-filters:linearRGB;solid-color:#000000;solid-opacity:1;vector-effect:none;fill:url(#linearGradient851);fill-opacity:1;fill-rule:nonzero;stroke:none;stroke-width:0.26458335;stroke-linecap:round;stroke-linejoin:miter;stroke-miterlimit:4;stroke-dasharray:none;stroke-dashoffset:0;stroke-opacity:1;paint-order:normal;color-rendering:auto;image-rendering:auto;shape-rendering:auto;text-rendering:auto;enable-background:accumulate"
       d="m 2.6230957,292.01709 c -0.1442764,0 -0.2635498,0.11978 -0.2635498,0.26407 v 0.14159 H 1.0593668 c -0.14429093,0 -0.26458333,0.12029 -0.26458333,0.26458 v 2.68098 c 0,0.14429 0.1202924,0.26458 0.26458333,0.26458 h 4.2312665 c 0.1442908,0 0.2645833,-0.12029 0.2645833,-0.26458 v -2.68098 c 0,-0.14429 -0.1202925,-0.26458 -0.2645833,-0.26458 H 3.9920046 v -0.14159 c 0,-0.14429 -0.1213287,-0.26407 -0.2656171,-0.26407 z m 0,0.26407 h 1.1032918 v 0.38602 H 2.6230957 v -0.24443 z m -1.5637289,0.40617 H 2.36368 c 0.00803,0.10107 0.071133,0.18748 0.1617473,0.22428 0.029958,0.0129 0.062866,0.0202 0.097668,0.0202 h 1.1038092 c 0.035061,0 0.068049,-0.008 0.098185,-0.0207 0.090606,-0.037 0.1546604,-0.12306 0.1627809,-0.22376 h 1.3027629 v 2.68098 H 1.0593668 Z m 0.6123657,0.4315 c -0.1442764,0 -0.2656168,0.12132 -0.2656168,0.26562 v 1.28726 c 0,0.14429 0.1213284,0.26562 0.2656168,0.26562 h 1.1249959 c 0.1442765,0 0.265617,-0.12133 0.265617,-0.26562 v -1.28726 c 0,-0.14429 -0.1213286,-0.26562 -0.265617,-0.26562 z m 0,0.26562 h 1.1249959 v 1.09502 c -0.010062,-0.0345 -0.022599,-0.0681 -0.037207,-0.10077 -0.03353,-0.0749 -0.119652,-0.1101 -0.1855185,-0.16433 0.017038,-0.0253 0.05553,-0.0386 0.062528,-0.0641 0.021428,-0.0783 0.01597,-0.14605 0.01602,-0.20722 -2.06e-5,-0.23025 -0.1879711,-0.41958 -0.4180624,-0.41961 v -5.3e-4 c -0.2301599,-8e-5 -0.4180418,0.18981 -0.4180624,0.42013 2.55e-5,0.057 -0.00885,0.12271 0.00775,0.20102 0.00556,0.0262 0.045589,0.0417 0.062528,0.0687 -0.067016,0.0554 -0.1534454,0.0934 -0.1855184,0.17001 -0.011662,0.0279 -0.020985,0.0567 -0.029456,0.0858 z m 3.1884361,0.0424 a 0.1323049,0.1323049 0 0 0 -0.01447,5.3e-4 H 3.4804073 a 0.1323049,0.1323049 0 0 0 -0.013436,0 0.1323049,0.1323049 0 0 0 0.013436,0.26407 h 1.3652913 a 0.13248936,0.13248936 0 1 0 0.01447,-0.26458 z m -2.6256797,0.35967 v 5.3e-4 c 0.085739,10e-6 0.1539879,0.0674 0.1539958,0.15606 -5.42e-5,0.0663 -0.00257,0.11958 -0.00775,0.1385 -0.00518,0.0189 0.01042,0.005 -0.013436,0.0119 a 0.1323049,0.1323049 0 0 0 0.00775,0.2558 c 0.065758,0.0162 0.1084438,0.058 0.144694,0.13901 0.02084,0.0466 0.021845,0.11647 0.031006,0.17932 H 1.9161621 c 0.00822,-0.0642 0.00933,-0.13664 0.028939,-0.18346 0.033801,-0.0807 0.071776,-0.11875 0.1369425,-0.13487 a 0.1323049,0.1323049 0 0 0 0.00568,-0.2558 c -0.022612,-0.007 -0.00169,0.0128 -0.00568,-0.006 -0.004,-0.0189 -0.00204,-0.0738 -0.00207,-0.14418 8e-6,-0.0887 0.068748,-0.15661 0.1545126,-0.15658 z m 1.2459189,0.13694 a 0.13281,0.13281 0 0 0 0,0.26562 h 1.3652913 a 0.13281,0.13281 0 0 0 0,-0.26562 z m 1.3797608,0.49765 a 0.1323049,0.1323049 0 0 0 -0.01447,5.3e-4 H 3.4804073 a 0.1323049,0.1323049 0 0 0 -0.013436,0 0.1323049,0.1323049 0 0 0 0.013436,0.26355 h 1.3652913 a 0.1323049,0.1323049 0 1 0 0.01447,-0.26407 z"
       id="rect1035-8" />
  </g>
</svg>
